<svg xmlns="http://www.w3.org/2000/svg" version="1.1" xmlns:xlink="http://www.w3.org/1999/xlink" xmlns:svgjs="http://svgjs.com/svgjs" width="190" height="190"><svg width="190" height="190" xmlns="http://www.w3.org/2000/svg" xmlns:svg="http://www.w3.org/2000/svg" version="1.1">
 <g class="layer">
  <title>Layer 1</title>
  <g fill="none" id="SvgjsG1028" stroke-width="2">
   <path d="m40.54,24.39a7.48,7.29 61.8 0 0 2.89,-10.03a7.48,7.29 61.8 0 0 -9.95,-3.15a7.48,7.29 61.8 0 0 -2.89,10.03a7.48,7.29 61.8 0 0 9.95,3.15" id="SvgjsPath1027" stroke="#ffaa79"></path>
   <path d="m144.57,24.41a7.46,7.15 121.5 0 0 10,-2.62a7.46,7.15 121.5 0 0 -2.2,-10.1a7.46,7.15 121.5 0 0 -10,2.62a7.46,7.15 121.5 0 0 2.2,10.1" id="SvgjsPath1026" stroke="#ffaa79"></path>
   <path d="m122.59,42.62a29.65,29.65 0 0 0 -29.65,-29.65a29.65,29.65 0 0 0 -29.65,29.65a29.65,29.65 0 0 0 29.65,29.65a29.65,29.65 0 0 0 29.65,-29.65" id="SvgjsPath1025" stroke="#ffaa79"></path>
   <path d="m30.54,46.46a7.22,6.93 41.5 0 0 -0.82,-9.97a7.22,6.93 41.5 0 0 -10,0.41a7.22,6.93 41.5 0 0 0.82,9.97a7.22,6.93 41.5 0 0 10,-0.41" id="SvgjsPath1024" stroke="#ffaa79"></path>
   <path d="m167.29,37.88a7.2,6.9 -30.8 0 0 -9.71,-2.24a7.2,6.9 -30.8 0 0 -2.65,9.62a7.2,6.9 -30.8 0 0 9.71,2.24a7.2,6.9 -30.8 0 0 2.65,-9.62" id="SvgjsPath1023" stroke="#ffaa79"></path>
   <path d="m53.2,80.22q3.69,0.49 8.42,0.92c4.04,0.37 3.83,-3.86 0.9,-4.91q-3.99,-1.42 -8.15,-2.26a1.97,1.97 0 0 1 -1.55,-1.56q-1.36,-6.98 -4.01,-13.66a0.72,0.72 0 0 0 -1.26,-0.15q-3.52,5.03 -4.4,10.79a1.58,1.57 5.8 0 1 -1.65,1.34l-17.55,-0.94q-0.74,-0.04 -0.81,0.7q-0.19,1.87 0.45,3.08q0.26,0.49 0.79,0.65q5.83,1.76 11.7,3.48q2.99,0.88 6.2,0.96a0.98,0.97 0.6 0 1 0.95,0.96q0.07,4.22 0.76,8.09a1.35,1.33 -81.5 0 0 0.68,0.93l4.85,2.55a0.95,0.94 18.4 0 0 1.38,-0.69l1.41,-9.61q0.12,-0.77 0.89,-0.67" id="SvgjsPath1022" stroke="#ffaa79"></path>
   <path d="m134.81,81.19q0.12,3.06 0.35,6.6c0.22,3.51 2.3,3.67 4.89,2.35q2.57,-1.31 2.66,-4.19l0.22,-6.71q0.02,-0.56 0.57,-0.64q8.99,-1.36 17.07,-3.82q3.1,-0.94 2.07,-4.4q-0.2,-0.69 -0.93,-0.62l-17.88,1.73a0.88,0.87 -3 0 1 -0.96,-0.86q-0.14,-7.03 -4.13,-11.62a0.89,0.88 42.3 0 0 -1.39,0.06c-2.42,3.41 -3.18,8.6 -3.51,12.63a1.85,1.83 83.8 0 1 -1.27,1.59l-10.39,3.34q-0.61,0.2 -0.81,0.8q-0.48,1.48 -0.13,3.03q0.13,0.63 0.77,0.59l11.77,-0.79q0.99,-0.06 1.03,0.93" id="SvgjsPath1021" stroke="#ffaa79"></path>
   <path d="m115.8,142.38q-8.09,1.27 -13.8,7.12q-2.75,2.82 -2.49,6.8q0.26,4.05 0.41,8.16" id="SvgjsPath1020" stroke="#ffaa79"></path>
   <path d="m99.92,164.46l-13.29,0.15" id="SvgjsPath1019" stroke="#7f7c88"></path>
   <path d="m86.63,164.61c0.35,-3.4 0.42,-6.74 0.26,-10.08q-0.11,-2.18 -2.24,-4.78q-4.23,-5.15 -9.69,-6.95q-1.71,-0.56 -4.33,0.38" id="SvgjsPath1018" stroke="#ffaa79"></path>
   <path d="m70.63,143.18q-2.68,-6.04 -8.13,-7.04c-7.3,-1.35 -14.46,3.33 -14.32,11.19q0.13,7.31 0.09,13.84q0,0.7 -0.7,0.7l-7.72,0.07a0.85,0.85 0 0 1 -0.86,-0.85q-0.02,-27.72 0.12,-52.6c0.13,-22.58 -30.98,-21.07 -30.89,0.52q0.09,23.65 0.02,48.61c-0.03,10.89 3.48,20.22 14.83,23.61q3.2,0.96 10.25,0.93q65.75,-0.26 123.05,-0.01c9.9,0.05 17.01,-6.42 20.31,-15.15q1.32,-3.49 1.39,-11.41q0.19,-21.59 -0.04,-43.07q-0.07,-6.09 -0.97,-8.96c-2.17,-6.99 -7.33,-11.92 -15.01,-11.71c-10.97,0.3 -14.91,9.78 -14.88,19.23q0.1,26.31 -0.25,49.63q-0.02,1.31 -1.34,1.33l-6.28,0.07a1.2,1.19 88.8 0 1 -1.21,-1.17q-0.11,-5.3 0.03,-11.39c0.13,-5.45 -1.71,-10.84 -6.7,-12.71c-5.92,-2.22 -12.86,-0.77 -15.62,5.54" id="SvgjsPath1017" stroke="#7f7c88"></path>
   <path d="m70.63,143.18l0.69,21.18q0.02,0.5 0.52,0.49l14.79,-0.24" id="SvgjsPath1016" stroke="#802e10"></path>
   <path d="m99.92,164.46l14.78,-0.01q0.91,-0.01 0.92,-0.92l0.18,-21.15" id="SvgjsPath1015" stroke="#802e10"></path>
   <path d="m74.59,103.12c-8.77,15.65 5.06,28.3 16.5,36.69q2.2,1.61 4.32,0.03c10.51,-7.8 23.79,-19.35 17.53,-34.25q-3.19,-7.6 -9.43,-10.92c-10.2,-5.42 -23.25,-1.69 -28.92,8.45" id="SvgjsPath1014" stroke="#7f7c88"></path>
   <path d="m93.21,122.44a8.46,7.99 89.6 0 0 7.93,-8.52a8.46,7.99 89.6 0 0 -8.05,-8.4a8.46,7.99 89.6 0 0 -7.93,8.52a8.46,7.99 89.6 0 0 8.05,8.4" id="SvgjsPath1013" stroke="#802e10"></path>
  </g>
  <rect fill="#fef8f1" height="190" id="SvgjsRect1012" width="190" x="-2" y="-1"></rect>
  <path d="m40.54,24.39a7.48,7.29 61.8 0 1 -9.95,-3.15a7.48,7.29 61.8 0 1 2.89,-10.03a7.48,7.29 61.8 0 1 9.95,3.15a7.48,7.29 61.8 0 1 -2.89,10.03z" fill="#ff5c00" id="SvgjsPath1011"></path>
  <path d="m144.57,24.41a7.46,7.15 121.5 0 1 -2.2,-10.1a7.46,7.15 121.5 0 1 10,-2.62a7.46,7.15 121.5 0 1 2.2,10.1a7.46,7.15 121.5 0 1 -10,2.62z" fill="#ff5c00" id="SvgjsPath1010"></path>
  <path d="m122.59,42.62a29.65,29.65 0 0 1 -29.65,29.65a29.65,29.65 0 0 1 -29.65,-29.65a29.65,29.65 0 0 1 29.65,-29.65a29.65,29.65 0 0 1 29.65,29.65z" fill="#ff5c00" id="SvgjsPath1009"></path>
  <path d="m30.54,47.46a7.22,6.93 41.5 0 1 -10,0.41a7.22,6.93 41.5 0 1 -0.82,-9.97a7.22,6.93 41.5 0 1 10,-0.41a7.22,6.93 41.5 0 1 0.82,9.97z" fill="#ff5c00" id="SvgjsPath1008"></path>
  <path d="m167.29,37.88a7.2,6.9 -30.8 0 1 -2.65,9.62a7.2,6.9 -30.8 0 1 -9.71,-2.24a7.2,6.9 -30.8 0 1 2.65,-9.62a7.2,6.9 -30.8 0 1 9.71,2.24z" fill="#ff5c00" id="SvgjsPath1007"></path>
  <path d="m52.31,80.89l-1.41,9.61a0.95,0.94 18.4 0 1 -1.38,0.69l-4.85,-2.55a1.35,1.33 -81.5 0 1 -0.68,-0.93q-0.69,-3.87 -0.76,-8.09a0.98,0.97 0.6 0 0 -0.95,-0.96q-3.21,-0.08 -6.2,-0.96q-5.87,-1.72 -11.7,-3.48q-0.53,-0.16 -0.79,-0.65q-0.64,-1.21 -0.45,-3.08q0.07,-0.74 0.81,-0.7l17.55,0.94a1.58,1.57 5.8 0 0 1.65,-1.34q0.88,-5.76 4.4,-10.79a0.72,0.72 0 0 1 1.26,0.15q2.65,6.68 4.01,13.66a1.97,1.97 0 0 0 1.55,1.56q4.16,0.84 8.15,2.26c2.93,1.05 3.14,5.28 -0.9,4.91q-4.73,-0.43 -8.42,-0.92q-0.77,-0.1 -0.89,0.67z" fill="#ff5c00" id="SvgjsPath1006"></path>
  <path d="m134.81,81.19q-0.04,-0.99 -1.03,-0.93l-11.77,0.79q-0.64,0.04 -0.77,-0.59q-0.35,-1.55 0.13,-3.03q0.2,-0.6 0.81,-0.8l10.39,-3.34a1.85,1.83 83.8 0 0 1.27,-1.59c0.33,-4.03 1.09,-9.22 3.51,-12.63a0.89,0.88 42.3 0 1 1.39,-0.06q3.99,4.59 4.13,11.62a0.88,0.87 -3 0 0 0.96,0.86l17.88,-1.73q0.73,-0.07 0.93,0.62q1.03,3.46 -2.07,4.4q-8.08,2.46 -17.07,3.82q-0.55,0.08 -0.57,0.64l-0.22,6.71q-0.09,2.88 -2.66,4.19c-2.59,1.32 -4.67,1.16 -4.89,-2.35q-0.23,-3.54 -0.35,-6.6z" fill="#ff5c00" id="SvgjsPath1005"></path>
  <path d="m70.63,143.18l0.69,21.18q0.02,0.5 0.52,0.49l14.79,-0.24l13.29,-0.15l14.78,-0.01q0.91,-0.01 0.92,-0.92l0.18,-21.15c2.76,-6.31 9.7,-7.76 15.62,-5.54c4.99,1.87 6.83,7.26 6.7,12.71q-0.14,6.09 -0.03,11.39a1.2,1.19 88.8 0 0 1.21,1.17l6.28,-0.07q1.32,-0.02 1.34,-1.33q0.35,-23.32 0.25,-49.63c-0.03,-9.45 3.91,-18.93 14.88,-19.23c7.68,-0.21 12.84,4.72 15.01,11.71q0.9,2.87 0.97,8.96q0.23,21.48 0.04,43.07q-0.07,7.92 -1.39,11.41c-3.3,8.73 -10.41,15.2 -20.31,15.15q-57.3,-0.25 -123.05,0.01q-7.05,0.03 -10.25,-0.93c-11.35,-3.39 -14.86,-12.72 -14.83,-23.61q0.07,-24.96 -0.02,-48.61c-0.09,-21.59 31.02,-23.1 30.89,-0.52q-0.14,24.88 -0.12,52.6a0.85,0.85 0 0 0 0.86,0.85l7.72,-0.07q0.7,0 0.7,-0.7q0.04,-6.53 -0.09,-13.84c-0.14,-7.86 7.02,-12.54 14.32,-11.19q5.45,1 8.13,7.04z" fill="#00001f" id="SvgjsPath1004"></path>
  <path d="m91.09,139.81c-11.44,-8.39 -25.27,-21.04 -16.5,-36.69c5.67,-10.14 18.72,-13.87 28.92,-8.45q6.24,3.32 9.43,10.92c6.26,14.9 -7.02,26.45 -17.53,34.25q-2.12,1.58 -4.32,-0.03zm2.12,-17.37a8.46,7.99 89.6 0 0 7.93,-8.52a8.46,7.99 89.6 0 0 -8.05,-8.4a8.46,7.99 89.6 0 0 -7.93,8.52a8.46,7.99 89.6 0 0 8.05,8.4z" fill="#00001f" id="SvgjsPath1003"></path>
  <path d="m93.21,122.44a8.46,7.99 89.6 0 1 -8.05,-8.4a8.46,7.99 89.6 0 1 7.93,-8.52a8.46,7.99 89.6 0 1 8.05,8.4a8.46,7.99 89.6 0 1 -7.93,8.52z" fill="#ff5c00" id="SvgjsPath1002"></path>
  <path d="m115.8,142.38l-0.18,21.15q-0.01,0.91 -0.92,0.92l-14.78,0.01q-0.15,-4.11 -0.41,-8.16q-0.26,-3.98 2.49,-6.8q5.71,-5.85 13.8,-7.12z" fill="#ff5c00" id="SvgjsPath1001"></path>
  <path d="m86.63,164.61l-14.79,0.24q-0.5,0.01 -0.52,-0.49l-0.69,-21.18q2.62,-0.94 4.33,-0.38q5.46,1.8 9.69,6.95q2.13,2.6 2.24,4.78c0.16,3.34 0.09,6.68 -0.26,10.08z" fill="#ff5c00" id="SvgjsPath1000"></path>
 </g>
</svg><style>@media (prefers-color-scheme: light) { :root { filter: none; } }
</style></svg>