<?xml version="1.0" standalone="no"?>
<!DOCTYPE svg PUBLIC "-//W3C//DTD SVG 20010904//EN"
 "http://www.w3.org/TR/2001/REC-SVG-20010904/DTD/svg10.dtd">
<svg version="1.0" xmlns="http://www.w3.org/2000/svg"
 width="700.000000pt" height="700.000000pt" viewBox="0 0 700.000000 700.000000"
 preserveAspectRatio="xMidYMid meet">
<metadata>
Created by potrace 1.14, written by Peter Selinger 2001-2017
</metadata>
<g transform="translate(0.000000,700.000000) scale(0.100000,-0.100000)"
fill="#000000" stroke="none">
<path d="M1242 6585 c-246 -125 -151 -505 125 -505 105 0 180 43 229 132 55
100 34 237 -48 320 -51 50 -102 72 -183 76 -60 3 -77 0 -123 -23z"/>
<path d="M5393 6587 c-108 -40 -183 -147 -183 -261 1 -276 364 -354 489 -106
89 180 -26 381 -219 379 -30 0 -69 -6 -87 -12z"/>
<path d="M3285 6509 c-462 -59 -842 -419 -930 -882 -19 -102 -19 -292 0 -394
132 -694 876 -1083 1518 -794 289 130 520 403 604 716 24 90 27 117 27 275 0
157 -3 185 -27 272 -143 533 -650 875 -1192 807z"/>
<path d="M5868 5710 c-209 -63 -254 -343 -74 -455 44 -27 58 -30 130 -30 92 0
137 17 194 73 49 49 72 105 72 178 0 140 -108 246 -249 243 -25 0 -58 -4 -73
-9z"/>
<path d="M815 5661 c-47 -21 -99 -70 -122 -114 -8 -17 -18 -59 -21 -93 -12
-151 111 -279 268 -278 270 2 331 370 80 483 -58 26 -150 27 -205 2z"/>
<path d="M1731 4802 c-51 -79 -100 -196 -122 -289 -32 -136 -5 -128 -345 -109
-159 9 -315 16 -346 16 l-58 0 0 -54 c0 -37 6 -60 18 -75 12 -14 82 -40 238
-86 243 -72 338 -95 399 -95 67 0 85 -20 85 -93 0 -90 20 -239 35 -262 18 -28
212 -122 225 -109 5 5 22 93 36 194 14 102 32 191 38 198 10 10 37 10 145 -3
72 -8 159 -16 193 -17 56 -2 63 1 85 27 29 33 26 75 -9 112 -23 24 -118 58
-272 97 -54 13 -105 31 -113 39 -8 7 -29 76 -48 153 -36 148 -107 367 -126
390 -18 22 -25 18 -58 -34z"/>
<path d="M5062 4818 c-47 -59 -104 -241 -117 -373 -3 -38 -11 -84 -16 -102
-12 -37 -21 -41 -276 -123 -113 -35 -166 -57 -173 -70 -16 -29 -13 -120 4
-126 8 -3 115 1 238 10 175 12 226 13 235 3 6 -7 15 -77 21 -166 11 -171 23
-203 78 -209 64 -8 148 38 179 98 9 18 16 76 20 166 4 77 8 148 10 160 4 18
18 23 111 38 139 23 380 77 486 110 105 32 133 58 132 122 -2 77 12 75 -368
38 -226 -23 -343 -30 -351 -24 -7 6 -15 40 -18 78 -9 96 -32 177 -73 257 -54
109 -95 146 -122 113z"/>
<path d="M5892 3609 c-229 -35 -385 -198 -448 -469 -15 -68 -18 -173 -23
-1076 -5 -827 -8 -1004 -20 -1017 -11 -14 -35 -17 -150 -17 -93 0 -141 4 -149
12 -9 9 -12 83 -12 270 0 195 -4 277 -15 334 -38 184 -118 277 -278 326 -98
29 -248 23 -328 -14 -67 -31 -132 -87 -171 -147 -22 -35 -28 -58 -30 -105 l-2
-61 -3 52 -4 52 -32 -6 c-217 -41 -463 -204 -530 -351 -20 -44 -22 -60 -19
-232 1 -102 5 -193 8 -202 5 -17 -11 -18 -244 -18 l-250 0 5 174 c7 200 -1
244 -53 324 -100 152 -317 302 -438 302 -72 0 -94 -13 -99 -57 -4 -38 -4 -37
-5 7 -3 76 -81 188 -171 245 -122 76 -325 73 -460 -8 -102 -61 -177 -173 -188
-279 -2 -29 -5 -177 -6 -328 l-2 -275 -144 -8 c-79 -5 -155 -6 -167 -3 l-24 6
0 1028 c0 1146 2 1103 -70 1248 -88 180 -264 284 -480 284 -168 0 -294 -52
-411 -169 -80 -81 -123 -154 -156 -266 -16 -55 -18 -141 -21 -1015 -3 -994 1
-1140 38 -1284 44 -172 128 -314 239 -403 31 -25 97 -65 148 -89 177 -86 -75
-78 2668 -81 2203 -3 2448 -2 2519 12 249 50 440 210 560 466 87 188 88 205
84 1349 -5 1065 -1 1012 -82 1175 -53 107 -118 184 -200 237 -106 68 -250 97
-384 77z m-3275 -2241 c-2 -18 -4 -4 -4 32 0 36 2 50 4 33 2 -18 2 -48 0 -65z
m10 -300 c-2 -18 -4 -4 -4 32 0 36 2 50 4 33 2 -18 2 -48 0 -65z m1496 -125
c-68 -2 -178 -2 -245 0 -68 1 -13 3 122 3 135 0 190 -2 123 -3z m-1045 -10
c-32 -2 -84 -2 -115 0 -32 2 -6 3 57 3 63 0 89 -1 58 -3z"/>
<path d="M3291 3590 c-371 -78 -641 -396 -641 -755 0 -228 109 -444 340 -675
112 -113 261 -238 362 -306 86 -58 111 -50 293 94 564 449 705 848 452 1287
-52 91 -182 221 -267 268 -123 68 -208 90 -360 93 -74 2 -155 -1 -179 -6z
m-144 -742 c-3 -8 -6 -5 -6 6 -1 11 2 17 5 13 3 -3 4 -12 1 -19z m580 -50 c-3
-8 -6 -5 -6 6 -1 11 2 17 5 13 3 -3 4 -12 1 -19z m-580 -60 c-3 -8 -6 -5 -6 6
-1 11 2 17 5 13 3 -3 4 -12 1 -19z m93 -163 c19 -19 32 -35 29 -35 -3 0 -20
16 -39 35 -19 19 -32 35 -29 35 3 0 20 -16 39 -35z m247 -81 c-3 -3 -12 -4
-19 -1 -8 3 -5 6 6 6 11 1 17 -2 13 -5z"/>
</g>
</svg>
