<?xml version="1.0" encoding="utf-8"?>
<svg xmlns="http://www.w3.org/2000/svg" viewBox="0 0 500 500">
  <defs>
    <filter id="shadow" x="-50%" y="-50%" width="200%" height="200%">
      <feGaussianBlur in="SourceAlpha" stdDeviation="20"/>
      <feOffset dx="0" dy="15" result="offsetblur"/>
      <feComponentTransfer>
        <feFuncA type="linear" slope="0.3"/>
      </feComponentTransfer>
      <feMerge>
        <feMergeNode/>
        <feMergeNode in="SourceGraphic"/>
      </feMerge>
    </filter>
    <linearGradient id="bgGradient" x1="0%" y1="0%" x2="0%" y2="100%">
      <stop offset="0" style="stop-color:#F8F6F2;stop-opacity:1"/>
      <stop offset="1" style="stop-color:#F2D4BC;stop-opacity:1"/>
    </linearGradient>
  </defs>
  <rect x="15.788" y="13.348" width="468.908" height="468.908" rx="130" ry="130" fill="url(#bgGradient)" filter="url(#shadow)" style="stroke-width: 1px;"/>
  <g transform="matrix(0.747742, 0, 0, 0.747742, -248.287613, -44.837837)" style="">
    <path d="M 639.05 423.75 C 637.65 425.54 636.28 426.98 636 426.97 C 635.29 426.92 615.39 401.25 607.57 390.3 C 578.17 349.12 559.52 314.37 551.87 286.5 C 551 283.31 550.55 276.8 550.62 268.5 C 550.73 257.58 551.17 254.09 553.39 246.69 C 554.84 241.85 557.12 235.71 558.47 233.06 C 561.78 226.53 571.84 213.33 577.43 208.17 C 587.76 198.65 602.8 190.82 617.12 187.51 C 626.93 185.25 644.07 185.23 654.49 187.46 C 686.79 194.4 711.37 218.74 719.45 251.77 C 721.7 260.97 721.18 282.99 718.49 293 C 710.92 321.11 681.21 370 639.05 423.75 Z M 550 558.99 C 546.42 559.59 536.53 560.28 528 560.51 C 505.86 561.12 487.35 557.95 459.83 548.83 C 448 544.92 446.88 544.72 443.04 545.87 C 439.94 546.8 438.05 548.31 435.39 552.01 C 432.15 556.53 431.61 556.88 428.68 556.32 C 426.93 555.99 425.4 555.64 425.28 555.55 C 425.15 555.46 424.74 534.15 424.37 508.19 L 423.68 461 L 432.69 461 L 435.44 470.25 C 445.51 504.18 459.04 525.01 479.63 538.33 C 514.04 560.57 559.67 554.26 574.39 525.21 C 579.98 514.18 581.62 498.64 578.47 486.53 C 573.12 466.01 556.8 453.37 512.5 435.44 C 498.02 429.58 474.71 417.95 466.58 412.53 C 448.23 400.29 436.09 383.62 430.88 363.5 C 427.67 351.1 427.66 327.59 430.86 315.5 C 434.54 301.62 440.87 290.29 450.76 279.9 C 455.53 274.88 461.93 269.09 464.97 267.02 C 476.74 259.04 490.71 253.31 504.5 250.81 C 511.78 249.49 541.33 249 542.5 250.17 C 542.87 250.54 542.8 253.24 542.33 256.17 L 541.48 261.5 L 530.49 261.17 C 510.76 260.57 497.78 265.55 487.37 277.74 C 480.76 285.47 477.98 292.84 477.29 304.5 C 476.35 320.18 480.96 332.19 491.69 342 C 503.42 352.72 514.33 358.76 545.78 371.94 C 573.9 383.72 582.68 388.01 593.91 395.49 C 604.25 402.38 606.53 404.72 618.69 421 C 627.21 432.4 628.32 434.53 631.12 444.66 C 632.87 450.98 633.29 455.22 633.28 466.5 C 633.28 484.98 630.65 498.55 624.75 510.5 C 621.3 517.48 612.23 528.73 605.76 534.06 C 602.32 536.89 598.49 540.05 597.26 541.09 C 590.27 546.96 565.43 556.37 550 558.99 Z M 827.5 558.48 C 816.25 560.24 793.22 560.93 782 559.83 C 744.5 556.15 711.1 541.11 687.88 517.43 C 679.49 508.89 670.87 495.52 668.44 492.81 C 667.409 491.66 656.696 472.202 656.377 471.468 C 656.034 470.678 651.449 456.567 651.14 454.5 C 650.301 448.898 647.175 434.912 646.89 433.55 C 646.362 431.029 646.1 429.38 651.63 422.5 C 658.42 414.03 682.18 380.84 688.67 370.77 C 718.41 324.56 729.21 299.53 730.67 273.35 L 731.3 262.2 L 739.13 259.13 C 756.77 252.22 773.36 249.5 797 249.62 C 820.07 249.73 830.03 251.36 851.94 258.58 C 862.65 262.11 870.05 264 873.19 264 C 877.49 264 878.41 263.57 881.88 260 C 885.01 256.78 886.48 256 889.39 256 L 893.02 256 L 892.76 300.75 L 892.5 345.5 L 883.94 345.5 L 879.92 333.5 C 875.49 320.26 867.68 303.16 863.39 297.29 C 854.63 285.31 852 282.36 845.31 276.98 C 836.62 269.98 826.16 264.71 816.47 262.44 C 806.6 260.12 783.91 260.9 775.75 263.83 C 739.56 276.83 719.46 310.77 714.97 366.5 C 713.38 386.21 714.19 432.91 716.43 450.79 C 722.3 497.63 740.53 530.44 768.47 544.48 C 792.39 556.5 825.7 553.82 836.67 539 C 843.2 530.18 843.5 527.82 843.5 486 C 843.5 458.5 843.16 447.38 842.23 444.31 C 839.94 436.78 833.47 432.78 819.75 430.42 C 816.17 429.81 816 429.6 816 425.89 L 816 422 L 927 422 L 927 425.46 C 927 429.43 925.72 430.39 919.05 431.41 C 913.9 432.19 908.87 435.02 906.68 438.36 C 903.63 443.02 903 452.12 903 491.61 L 903 530.86 L 897.25 534.32 C 878.68 545.49 852.54 554.55 827.5 558.48 Z M 633.24 409.75 C 634.4 410.99 635.65 412 636.02 412 C 636.76 412 642.21 405.28 649.75 395.07 C 681.61 351.98 701.48 317.71 709.13 292.69 C 711.85 283.8 712.26 280.97 712.32 270.5 C 712.45 248.17 705.81 232.63 689.06 216 C 673.28 200.34 653.92 193.06 631.8 194.47 C 619.1 195.28 612.51 197.02 601.11 202.62 C 593.11 206.54 590.27 208.67 582.06 216.86 C 571.51 227.39 566.19 236.06 562.04 249.5 C 553.81 276.11 563.16 306.21 595.13 356 C 607.47 375.22 627.91 404.05 633.24 409.75 Z" fill="rgb(44,44,47)"/>
    <path d="M 652.47 305.09 C647.28,307.64 644.61,308.29 637.81,308.60 C632.54,308.85 628.04,308.51 625.50,307.66 C606.00,301.16 595.23,285.91 596.18,266.14 C596.54,258.72 597.07,256.62 599.93,251.26 C604.02,243.62 611.19,236.74 618.78,233.18 C623.90,230.78 625.66,230.50 635.50,230.50 C645.77,230.50 646.94,230.71 653.16,233.65 C661.37,237.54 666.99,243.19 671.24,251.84 C674.26,257.97 674.50,259.18 674.50,268.48 C674.49,276.65 674.06,279.57 672.16,284.28 C668.95,292.25 660.58,301.10 652.47,305.09 Z" fill="rgb(225,96,47)"/>
  </g>
</svg>